<svg xmlns="http://www.w3.org/2000/svg" viewBox="0 0 128 128">
  <defs>
    <linearGradient id="bananaBody" x1="0%" y1="0%" x2="100%" y2="100%">
      <stop offset="0%" stop-color="#fff38a"/>
      <stop offset="100%" stop-color="#f4c834"/>
    </linearGradient>
  </defs>
  <path d="M101 23c-11 8-25 12-40 13 16 7 29 18 35 34 5 13 2 23-6 30-10 9-28 11-48-2-17-11-27-31-30-52 5 16 17 31 33 40 12 7 24 8 31 1 5-4 6-12 3-20-6-14-22-27-44-34 28 0 50-4 66-17z" fill="url(#bananaBody)" stroke="#7c5f00" stroke-width="5" stroke-linejoin="round"/>
  <path d="M101 23c5-1 8-4 10-8" fill="none" stroke="#5b3d1a" stroke-width="6" stroke-linecap="round"/>
  <circle cx="63" cy="52" r="4" fill="#402c00"/>
  <circle cx="78" cy="61" r="4" fill="#402c00"/>
  <path d="M58 73c8 8 18 10 29 5" fill="none" stroke="#402c00" stroke-width="5" stroke-linecap="round"/>
</svg>
