<svg xmlns="http://www.w3.org/2000/svg" viewBox="0 0 128 128">
  <defs>
    <linearGradient id="g" x1="0" x2="0" y1="0" y2="1">
      <stop offset="0%" stop-color="#b77b3f"/>
      <stop offset="100%" stop-color="#6f4421"/>
    </linearGradient>
  </defs>
  <path d="M64 18c11 0 18 8 16 17 17 4 28 17 28 31 0 23-21 42-44 42S20 89 20 66c0-14 11-27 28-31-2-10 5-17 16-17z" fill="url(#g)"/>
  <path d="M53 30c0-8 5-14 11-14 8 0 13 6 12 14" fill="none" stroke="#8d572a" stroke-width="8" stroke-linecap="round"/>
  <circle cx="50" cy="67" r="5" fill="#1f1814"/>
  <circle cx="78" cy="67" r="5" fill="#1f1814"/>
  <path d="M49 84c9 8 20 8 29 0" fill="none" stroke="#1f1814" stroke-width="5" stroke-linecap="round"/>
</svg>
