<svg xmlns="http://www.w3.org/2000/svg" viewBox="0 0 128 128">
  <defs>
    <linearGradient id="body" x1="0%" y1="0%" x2="100%" y2="100%">
      <stop offset="0%" stop-color="#d07a32"/>
      <stop offset="65%" stop-color="#964516"/>
      <stop offset="100%" stop-color="#6f2b10"/>
    </linearGradient>
    <linearGradient id="shadow" x1="0%" y1="0%" x2="100%" y2="100%">
      <stop offset="0%" stop-color="rgba(255,255,255,0.0)"/>
      <stop offset="100%" stop-color="#61240d"/>
    </linearGradient>
  </defs>
  <path d="M68 12c11 0 18 10 13 20 11 2 19 10 20 22 10 4 17 14 17 26 0 23-18 40-40 40-8 0-15-1-22-4-7 3-14 4-22 4-22 0-40-17-40-40 0-12 7-22 17-26 1-12 9-20 20-22-5-10 2-20 13-20 5 0 9 2 12 6 3-4 7-6 12-6z" fill="url(#body)" stroke="#6b240a" stroke-width="4.5" stroke-linejoin="round"/>
  <path d="M42 33c12 2 25 1 38-3" fill="none" stroke="#a64f1f" stroke-width="5" stroke-linecap="round"/>
  <path d="M31 56c24 4 44 3 67-5" fill="none" stroke="#7d3212" stroke-width="5" stroke-linecap="round"/>
  <path d="M23 82c28 3 53 1 83-12" fill="none" stroke="#7a2f11" stroke-width="5" stroke-linecap="round"/>
  <path d="M36 24c7-1 12-4 15-9" fill="none" stroke="#dc914f" stroke-width="6" stroke-linecap="round" opacity=".4"/>
  <ellipse cx="48" cy="65" rx="13" ry="18" fill="#f4f4f4" stroke="#b4b4b4" stroke-width="2.5"/>
  <ellipse cx="81" cy="65" rx="13" ry="18" fill="#f4f4f4" stroke="#b4b4b4" stroke-width="2.5"/>
  <ellipse cx="48" cy="65" rx="6.5" ry="11" fill="#050505"/>
  <ellipse cx="81" cy="65" rx="6.5" ry="11" fill="#050505"/>
  <path d="M38 85h52c2 0 4 2 4 4 0 10-10 18-30 18-18 0-30-8-30-18 0-2 2-4 4-4z" fill="#f6f7f8" stroke="#b6b6b6" stroke-width="2.5"/>
  <path d="M38 85h52" fill="none" stroke="#8d4e29" stroke-width="6" stroke-linecap="round"/>
</svg>
